<svg id="Layer_1" data-name="Layer 1" xmlns="http://www.w3.org/2000/svg" viewBox="0 0 20.34 34.42"><defs><style>.cls-1{fill:#57c9e8;}.cls-2,.cls-3{fill:#282a74;}.cls-3{stroke:#2d2e73;}.cls-3,.cls-4{stroke-miterlimit:10;}.cls-4{fill:none;stroke:#fcf5da;stroke-width:0.5px;}.cls-5{fill:#fdcc98;}.cls-6{fill:#fee6b6;}</style></defs><path class="cls-1" d="M30.17,26.22A10.29,10.29,0,0,1,20,36.62,10.29,10.29,0,0,1,9.83,26.22a10.62,10.62,0,0,1,.57-3.45c0-.13.1-.26.14-.39L11,21.3,19.76,2.19l9,18.67.78,1.62.11.29A10.62,10.62,0,0,1,30.17,26.22Z" transform="translate(-9.83 -2.19)"/><circle class="cls-2" cx="10.27" cy="20.72" r="7.06"/><polyline class="cls-3" points="3.64 12.13 3.64 19.69 6.23 15.31 6.23 12.41 7.45 12.41 7.45 10.11 5.88 10.11 5.88 7.29 3.44 7.29 3.44 10.08 1.76 10.08 1.76 12.44 3.5 12.44"/><circle class="cls-4" cx="10.21" cy="20.78" r="5.18"/><circle class="cls-4" cx="10.21" cy="20.59" r="2.36"/><path class="cls-4" d="M16,18.45s2.3-.72,3.72,2" transform="translate(-9.83 -2.19)"/><path class="cls-4" d="M20.61,16.78s2,1.33.82,4.15" transform="translate(-9.83 -2.19)"/><path class="cls-4" d="M24.85,19.11s.27,2.39-2.66,3.29" transform="translate(-9.83 -2.19)"/><path class="cls-4" d="M26.08,22.78s-1,2.17-4,1.37" transform="translate(-9.83 -2.19)"/><path class="cls-4" d="M24.36,26.81s-2.22.94-3.91-1.61" transform="translate(-9.83 -2.19)"/><path class="cls-4" d="M19.8,28.76s-2.14-1.1-1.24-4" transform="translate(-9.83 -2.19)"/><path class="cls-4" d="M15.71,27s-.72-2.3,2-3.72" transform="translate(-9.83 -2.19)"/><path class="cls-4" d="M14,22.93s1-2.17,4-1.39" transform="translate(-9.83 -2.19)"/><line class="cls-4" x1="1.45" y1="10.76" x2="7.68" y2="10.76"/><rect class="cls-5" x="5.32" y="29.59" width="9.71" height="1.45"/><path class="cls-6" d="M17.51,30.16a1.61,1.61,0,0,1-1.28,1.11l7.85.14s-1.28-.22-1.51-1.25Z" transform="translate(-9.83 -2.19)"/></svg>