<svg id="Layer_1" data-name="Layer 1" xmlns="http://www.w3.org/2000/svg" viewBox="0 0 568.11 961.33"><defs><style>.cls-1,.cls-3,.cls-4{fill:none;}.cls-1{stroke:#000;}.cls-1,.cls-2,.cls-3,.cls-4,.cls-5,.cls-6{stroke-miterlimit:10;}.cls-1,.cls-3,.cls-6{stroke-width:6px;}.cls-2{fill:#231f20;}.cls-2,.cls-4{stroke:#020202;}.cls-2,.cls-5{stroke-width:5px;}.cls-3,.cls-6{stroke:#fff;}.cls-4{stroke-width:8px;}.cls-5,.cls-6{fill:#fff;}.cls-5{stroke:#231f20;}</style></defs><path class="cls-1" d="M865.32,715.46c0,158.64-125.84,287.24-281.05,287.24S303.21,874.1,303.21,715.46a292.07,292.07,0,0,1,15.86-95.32q1.86-5.42,3.92-10.72l13.7-30,67.05-147V557A194.61,194.61,0,0,0,392,623.91c0,107.67,87.29,195,195,195s195-87.29,195-195-87.29-195-195-195a194,194,0,0,0-111.63,35.11v-69.7h33.8v-45.6H441.89l24-52.52L577.51,51.45,825,567.16,846.54,612c1,2.68,2,5.39,2.92,8.11A292.07,292.07,0,0,1,865.32,715.46Z" transform="translate(-300.21 -44.38)"/><path class="cls-2" d="M781.87,623.91c0,107.67-87.29,195-195,195s-195-87.29-195-195A194.61,194.61,0,0,1,403.74,557V386.5l-3.93,8.64H351.86V348.76H509.08v45.6h-33.8v69.7A194,194,0,0,1,586.91,429C694.58,429,781.87,516.23,781.87,623.91Z" transform="translate(-300.21 -44.38)"/><polygon class="cls-2" points="208.87 286.31 208.87 304.39 51.65 304.39 51.65 285.53 98.03 285.53 98.03 208.49 165.64 208.49 165.64 286.31 208.87 286.31"/><circle class="cls-3" cx="285.13" cy="581.3" r="143.07"/><circle class="cls-3" cx="285.13" cy="576" r="65.25"/><path class="cls-3" d="M472.92,500.7s63.5-19.82,102.9,55.13" transform="translate(-300.21 -44.38)"/><path class="cls-3" d="M601.1,454.64s55.57,36.57,22.55,114.53" transform="translate(-300.21 -44.38)"/><path class="cls-3" d="M719.22,518.9s7.66,66.07-73.3,90.85" transform="translate(-300.21 -44.38)"/><path class="cls-3" d="M752.14,620.37s-28.77,60-110.47,37.74" transform="translate(-300.21 -44.38)"/><path class="cls-3" d="M704.64,731.73s-61.21,26-107.86-44.63" transform="translate(-300.21 -44.38)"/><path class="cls-3" d="M578.77,785.7s-59.07-30.59-34.35-111.56" transform="translate(-300.21 -44.38)"/><path class="cls-3" d="M465.75,737.29s-19.81-63.5,55.13-102.9" transform="translate(-300.21 -44.38)"/><path class="cls-3" d="M417.75,624.58S446.11,564.4,528,586.08" transform="translate(-300.21 -44.38)"/><line class="cls-4" x1="208.98" y1="304.39" x2="208.87" y2="304.39"/><line class="cls-4" x1="51.65" y1="304.39" x2="49" y2="304.39"/><rect class="cls-5" x="149.91" y="824.8" width="268.28" height="40.09"/><path d="M515.37,824.37S509.87,848.74,480,855L696.91,859s-35.32-6.29-41.61-34.59Z" transform="translate(-300.21 -44.38)"/><rect class="cls-6" x="29.29" y="308.93" width="198.45" height="8.93"/></svg>