<svg id="Layer_1" data-name="Layer 1" xmlns="http://www.w3.org/2000/svg" viewBox="0 0 562.1 951.25"><defs><style>.cls-1{fill:#57c9e8;}.cls-2,.cls-3{fill:#282a74;}.cls-3{stroke:#2d2e73;}.cls-3,.cls-4{stroke-miterlimit:10;}.cls-4{fill:none;stroke:#fcf5da;stroke-width:8px;}.cls-5{fill:#fdcc98;}.cls-6{fill:#fee6b6;}</style></defs><path class="cls-1" d="M865.32,716.86c0,158.63-125.84,287.23-281.05,287.23s-281-128.6-281-287.23a292.09,292.09,0,0,1,15.85-95.33q1.86-5.41,3.92-10.72l13.7-30L577.52,52.84,825,568.56l21.54,44.87c1,2.67,2,5.38,2.92,8.1A292.09,292.09,0,0,1,865.32,716.86Z" transform="translate(-303.22 -52.84)"/><circle class="cls-2" cx="283.69" cy="572.46" r="194.96"/><polyline class="cls-3" points="100.53 335.05 100.53 544.16 172.06 423.09 172.06 342.91 205.87 342.91 205.87 279.23 162.63 279.23 162.63 201.41 95.02 201.41 95.02 278.45 48.64 278.45 48.64 343.69 96.6 343.69"/><circle class="cls-4" cx="282.12" cy="574.22" r="143.07"/><circle class="cls-4" cx="282.12" cy="568.92" r="65.25"/><path class="cls-4" d="M472.92,502.09s63.5-19.82,102.9,55.13" transform="translate(-303.22 -52.84)"/><path class="cls-4" d="M601.1,456s55.57,36.57,22.55,114.53" transform="translate(-303.22 -52.84)"/><path class="cls-4" d="M719.22,520.28s7.66,66.08-73.3,90.86" transform="translate(-303.22 -52.84)"/><path class="cls-4" d="M752.14,621.76s-28.77,60-110.47,37.74" transform="translate(-303.22 -52.84)"/><path class="cls-4" d="M704.64,733.12s-61.21,26-107.86-44.63" transform="translate(-303.22 -52.84)"/><path class="cls-4" d="M578.77,787.09S519.7,756.5,544.42,675.52" transform="translate(-303.22 -52.84)"/><path class="cls-4" d="M465.75,738.68s-19.81-63.5,55.13-102.9" transform="translate(-303.22 -52.84)"/><path class="cls-4" d="M417.75,626s28.36-60.17,110.21-38.5" transform="translate(-303.22 -52.84)"/><line class="cls-4" x1="46" y1="297.31" x2="205.97" y2="297.31"/><rect class="cls-5" x="146.91" y="817.73" width="268.28" height="40.09"/><path class="cls-6" d="M515.37,825.76s-5.5,24.37-35.37,30.66l216.91,3.93s-35.32-6.29-41.61-34.59Z" transform="translate(-303.22 -52.84)"/></svg>