<svg id="Layer_1" data-name="Layer 1" xmlns="http://www.w3.org/2000/svg" viewBox="0 0 1012.43 1033.71"><defs><style>.cls-1{fill:#57c9e8;}.cls-2{fill:#282a74;}.cls-3{fill:#2f3887;}.cls-4{fill:#3672b9;}.cls-5{fill:#529cd5;}.cls-6{fill:#73cfee;}.cls-7{fill:#8ad6f2;}.cls-8{fill:#fdcc98;}.cls-9{fill:#f7d4b5;}.cls-10{fill:#fee6b6;}.cls-11,.cls-12{fill:#fdf6da;}.cls-12{font-size:176.84px;font-family:ErasITC-Bold, Eras Bold ITC;font-weight:700;}</style></defs><path class="cls-1" d="M746.1,668.55c0,95.77-76,173.41-169.68,173.41S406.74,764.32,406.74,668.55A176.52,176.52,0,0,1,416.31,611q1.13-3.27,2.37-6.47L427,586.4,572.34,267.67,721.75,579l13,27.09c.61,1.61,1.2,3.25,1.76,4.89A176.26,176.26,0,0,1,746.1,668.55Z" transform="translate(-42.46 -30.16)"/><path class="cls-1" d="M206.62,653.9l4.61-9.9c-1.3,3.27-2.53,6.56-3.7,9.9Z" transform="translate(-42.46 -30.16)"/><path class="cls-1" d="M709.46,653.9h-.91c-.88-2.51-1.8-5-2.76-7.49Z" transform="translate(-42.46 -30.16)"/><circle class="cls-2" cx="512.09" cy="76.53" r="76.53"/><circle class="cls-3" cx="294.47" cy="137.02" r="76.84"/><circle class="cls-4" cx="135.24" cy="295.29" r="77.81"/><circle class="cls-5" cx="75.76" cy="516.09" r="75.76"/><circle class="cls-1" cx="135.24" cy="733.98" r="77.81"/><circle class="cls-6" cx="294.47" cy="895.59" r="76.84"/><circle class="cls-7" cx="512.09" cy="957.19" r="76.53"/><circle class="cls-8" cx="736.54" cy="902.88" r="69.55"/><circle class="cls-9" cx="897.34" cy="736.28" r="60.32"/><circle class="cls-10" cx="960.72" cy="518.01" r="51.71"/><circle class="cls-10" cx="892.61" cy="299.65" r="38.18"/><circle class="cls-11" cx="742.09" cy="136.52" r="27.81"/><text class="cls-12" transform="translate(445.62 654.86) scale(1.12 1)">%</text></svg>